<svg width="1200" height="630" viewBox="0 0 1200 630" fill="none" xmlns="http://www.w3.org/2000/svg">
<rect width="1200" height="630" fill="black"/>
<path d="M318.5 195.25L356 217.125V260.875L318.5 282.75L281 260.875V217.125L318.5 195.25Z" stroke="white" stroke-width="4.66667"/>
<path d="M323.501 221.449L314.712 254.102H311.836L320.625 221.449H323.501Z" fill="white"/>
<path d="M394.187 258V226.704H399.243V258H394.187ZM396.747 221.84C395.638 221.84 394.699 221.477 393.931 220.752C393.206 220.027 392.843 219.109 392.843 218C392.843 216.848 393.206 215.909 393.931 215.184C394.699 214.459 395.638 214.096 396.747 214.096C397.856 214.096 398.774 214.459 399.499 215.184C400.224 215.909 400.587 216.848 400.587 218C400.587 219.109 400.224 220.027 399.499 220.752C398.774 221.477 397.856 221.84 396.747 221.84ZM417.811 258L406.611 226.704H411.987L421.395 254.224H422.291L431.699 226.704H437.075L425.875 258H417.811ZM452.975 258.896C450.799 258.896 448.815 258.512 447.023 257.744C445.231 256.976 443.823 255.867 442.799 254.416C441.775 252.965 441.263 251.195 441.263 249.104C441.263 246.971 441.775 245.221 442.799 243.856C443.823 242.448 445.231 241.403 447.023 240.72C448.815 239.995 450.82 239.632 453.039 239.632H463.599V237.328C463.599 235.109 462.937 233.36 461.615 232.08C460.335 230.8 458.415 230.16 455.855 230.16C453.337 230.16 451.375 230.779 449.967 232.016C448.559 233.211 447.599 234.832 447.087 236.88L442.351 235.344C442.863 233.595 443.673 232.016 444.783 230.608C445.892 229.157 447.364 228.005 449.199 227.152C451.076 226.256 453.316 225.808 455.919 225.808C459.929 225.808 463.044 226.853 465.263 228.944C467.481 230.992 468.591 233.893 468.591 237.648V251.792C468.591 253.072 469.188 253.712 470.382 253.712H473.263V258H468.847C467.439 258 466.308 257.616 465.455 256.848C464.601 256.037 464.175 254.971 464.175 253.648V253.328H463.407C462.937 254.139 462.297 254.992 461.487 255.888C460.719 256.741 459.652 257.445 458.287 258C456.921 258.597 455.151 258.896 452.975 258.896ZM453.551 254.544C456.537 254.544 458.948 253.669 460.783 251.92C462.66 250.128 463.599 247.632 463.599 244.432V243.728H453.231C451.225 243.728 449.561 244.176 448.239 245.072C446.959 245.925 446.319 247.227 446.319 248.976C446.319 250.725 446.98 252.091 448.303 253.072C449.668 254.053 451.417 254.544 453.551 254.544ZM480.187 258V226.704H485.115V232.016H486.011C486.694 230.523 487.846 229.179 489.467 227.984C491.131 226.747 493.563 226.128 496.763 226.128C499.11 226.128 501.2 226.619 503.035 227.6C504.912 228.581 506.406 230.032 507.515 231.952C508.624 233.872 509.179 236.24 509.179 239.056V258H504.123V239.44C504.123 236.325 503.334 234.064 501.755 232.656C500.219 231.248 498.128 230.544 495.483 230.544C492.454 230.544 489.979 231.525 488.059 233.488C486.182 235.451 485.243 238.373 485.243 242.256V258H480.187Z" fill="white"/>
<path d="M543.993 246.44C543.113 246.44 542.3 246.24 541.553 245.84C540.833 245.413 540.26 244.84 539.833 244.12C539.406 243.4 539.193 242.6 539.193 241.72C539.193 240.813 539.406 240 539.833 239.28C540.26 238.56 540.833 238 541.553 237.6C542.273 237.173 543.086 236.96 543.993 236.96C544.9 236.96 545.713 237.173 546.433 237.6C547.18 238 547.753 238.56 548.153 239.28C548.58 240 548.793 240.813 548.793 241.72C548.793 242.627 548.58 243.44 548.153 244.16C547.726 244.88 547.14 245.44 546.393 245.84C545.673 246.24 544.873 246.44 543.993 246.44Z" fill="#666666"/>
<path d="M584.243 255.4C582.057 255.4 580.283 254.667 578.923 253.2C577.59 251.733 576.923 249.747 576.923 247.24V240.8C576.923 238.267 577.59 236.267 578.923 234.8C580.257 233.333 582.03 232.6 584.243 232.6C586.057 232.6 587.51 233.093 588.603 234.08C589.697 235.067 590.243 236.387 590.243 238.04L589.523 237.2H590.323L590.243 232.2V225.8H593.843V255H590.243V250.8H589.523L590.243 249.96C590.243 251.64 589.697 252.973 588.603 253.96C587.51 254.92 586.057 255.4 584.243 255.4ZM585.443 252.28C586.937 252.28 588.11 251.813 588.963 250.88C589.817 249.947 590.243 248.653 590.243 247V241C590.243 239.347 589.817 238.053 588.963 237.12C588.11 236.187 586.937 235.72 585.443 235.72C583.923 235.72 582.723 236.173 581.843 237.08C580.963 237.987 580.523 239.293 580.523 241V247C580.523 248.707 580.963 250.013 581.843 250.92C582.723 251.827 583.923 252.28 585.443 252.28ZM609.508 255.4C607.774 255.4 606.254 255.053 604.948 254.36C603.668 253.667 602.668 252.693 601.948 251.44C601.254 250.16 600.908 248.68 600.908 247V241C600.908 239.293 601.254 237.813 601.948 236.56C602.668 235.307 603.668 234.333 604.948 233.64C606.254 232.947 607.774 232.6 609.508 232.6C611.241 232.6 612.748 232.947 614.028 233.64C615.334 234.333 616.334 235.307 617.028 236.56C617.748 237.813 618.108 239.293 618.108 241V244.88H604.428V247C604.428 248.733 604.868 250.067 605.748 251C606.628 251.907 607.881 252.36 609.508 252.36C610.894 252.36 612.014 252.12 612.868 251.64C613.721 251.133 614.241 250.387 614.428 249.4H618.028C617.788 251.24 616.881 252.707 615.308 253.8C613.761 254.867 611.828 255.4 609.508 255.4ZM614.588 242.48V241C614.588 239.267 614.148 237.933 613.268 237C612.414 236.067 611.161 235.6 609.508 235.6C607.881 235.6 606.628 236.067 605.748 237C604.868 237.933 604.428 239.267 604.428 241V242.16H614.868L614.588 242.48ZM631.052 255L623.692 233H627.372L632.252 247.8C632.546 248.68 632.812 249.533 633.052 250.36C633.292 251.16 633.466 251.787 633.572 252.24C633.706 251.787 633.892 251.16 634.132 250.36C634.372 249.533 634.626 248.68 634.892 247.8L639.652 233H643.292L635.932 255H631.052Z" fill="#666666"/>
<path d="M392.962 324L389.602 294.8H393.042L395.242 316.4C395.295 316.987 395.348 317.6 395.402 318.24C395.455 318.853 395.495 319.44 395.522 320C395.575 320.56 395.602 321.027 395.602 321.4C395.655 321.027 395.695 320.56 395.722 320C395.775 319.44 395.828 318.853 395.882 318.24C395.962 317.6 396.042 316.987 396.122 316.4L398.842 294.8H402.562L405.042 316.4C405.122 316.987 405.188 317.6 405.242 318.24C405.322 318.853 405.388 319.44 405.442 320C405.522 320.56 405.575 321.027 405.602 321.4C405.628 321.027 405.655 320.56 405.682 320C405.735 319.44 405.788 318.853 405.842 318.24C405.922 317.6 405.988 316.987 406.042 316.4L408.322 294.8H411.602L408.162 324H403.642L401.162 302C401.108 301.387 401.042 300.787 400.962 300.2C400.908 299.613 400.855 299.067 400.802 298.56C400.748 298.053 400.708 297.64 400.682 297.32C400.655 297.64 400.602 298.053 400.522 298.56C400.468 299.067 400.415 299.613 400.362 300.2C400.308 300.787 400.242 301.387 400.162 302L397.482 324H392.962ZM424.586 324.4C422.853 324.4 421.333 324.053 420.026 323.36C418.746 322.667 417.746 321.693 417.026 320.44C416.333 319.16 415.986 317.68 415.986 316V310C415.986 308.293 416.333 306.813 417.026 305.56C417.746 304.307 418.746 303.333 420.026 302.64C421.333 301.947 422.853 301.6 424.586 301.6C426.319 301.6 427.826 301.947 429.106 302.64C430.413 303.333 431.413 304.307 432.106 305.56C432.826 306.813 433.186 308.293 433.186 310V313.88H419.506V316C419.506 317.733 419.946 319.067 420.826 320C421.706 320.907 422.959 321.36 424.586 321.36C425.973 321.36 427.093 321.12 427.946 320.64C428.799 320.133 429.319 319.387 429.506 318.4H433.106C432.866 320.24 431.959 321.707 430.386 322.8C428.839 323.867 426.906 324.4 424.586 324.4ZM429.666 311.48V310C429.666 308.267 429.226 306.933 428.346 306C427.493 305.067 426.239 304.6 424.586 304.6C422.959 304.6 421.706 305.067 420.826 306C419.946 306.933 419.506 308.267 419.506 310V311.16H429.946L429.666 311.48ZM449.85 324.4C448.037 324.4 446.584 323.92 445.49 322.96C444.397 321.973 443.85 320.64 443.85 318.96L444.57 319.8H443.85V324H440.25V294.8H443.85V301.2L443.77 306.2H444.57L443.85 307.04C443.85 305.387 444.397 304.067 445.49 303.08C446.61 302.093 448.064 301.6 449.85 301.6C452.064 301.6 453.837 302.333 455.17 303.8C456.504 305.267 457.17 307.267 457.17 309.8V316.24C457.17 318.747 456.504 320.733 455.17 322.2C453.837 323.667 452.064 324.4 449.85 324.4ZM448.65 321.28C450.17 321.28 451.37 320.827 452.25 319.92C453.13 319.013 453.57 317.707 453.57 316V310C453.57 308.293 453.13 306.987 452.25 306.08C451.37 305.173 450.17 304.72 448.65 304.72C447.184 304.72 446.01 305.187 445.13 306.12C444.277 307.053 443.85 308.347 443.85 310V316C443.85 317.653 444.277 318.947 445.13 319.88C446.01 320.813 447.184 321.28 448.65 321.28ZM488.219 324V294.8H495.779C497.672 294.8 499.299 295.16 500.659 295.88C502.046 296.6 503.112 297.613 503.859 298.92C504.632 300.227 505.019 301.773 505.019 303.56V315.2C505.019 316.987 504.632 318.547 503.859 319.88C503.112 321.187 502.046 322.2 500.659 322.92C499.299 323.64 497.672 324 495.779 324H488.219ZM491.819 320.8H495.779C497.539 320.8 498.912 320.307 499.899 319.32C500.912 318.333 501.419 316.96 501.419 315.2V303.56C501.419 301.827 500.912 300.467 499.899 299.48C498.912 298.493 497.539 298 495.779 298H491.819V320.8ZM520.523 324.4C518.79 324.4 517.27 324.053 515.963 323.36C514.683 322.667 513.683 321.693 512.963 320.44C512.27 319.16 511.923 317.68 511.923 316V310C511.923 308.293 512.27 306.813 512.963 305.56C513.683 304.307 514.683 303.333 515.963 302.64C517.27 301.947 518.79 301.6 520.523 301.6C522.257 301.6 523.763 301.947 525.043 302.64C526.35 303.333 527.35 304.307 528.043 305.56C528.763 306.813 529.123 308.293 529.123 310V313.88H515.443V316C515.443 317.733 515.883 319.067 516.763 320C517.643 320.907 518.897 321.36 520.523 321.36C521.91 321.36 523.03 321.12 523.883 320.64C524.737 320.133 525.257 319.387 525.443 318.4H529.043C528.803 320.24 527.897 321.707 526.323 322.8C524.777 323.867 522.843 324.4 520.523 324.4ZM525.603 311.48V310C525.603 308.267 525.163 306.933 524.283 306C523.43 305.067 522.177 304.6 520.523 304.6C518.897 304.6 517.643 305.067 516.763 306C515.883 306.933 515.443 308.267 515.443 310V311.16H525.883L525.603 311.48ZM542.068 324L534.708 302H538.388L543.268 316.8C543.561 317.68 543.828 318.533 544.068 319.36C544.308 320.16 544.481 320.787 544.588 321.24C544.721 320.787 544.908 320.16 545.148 319.36C545.388 318.533 545.641 317.68 545.908 316.8L550.668 302H554.308L546.948 324H542.068ZM568.492 324.4C566.759 324.4 565.239 324.053 563.932 323.36C562.652 322.667 561.652 321.693 560.932 320.44C560.239 319.16 559.892 317.68 559.892 316V310C559.892 308.293 560.239 306.813 560.932 305.56C561.652 304.307 562.652 303.333 563.932 302.64C565.239 301.947 566.759 301.6 568.492 301.6C570.226 301.6 571.732 301.947 573.012 302.64C574.319 303.333 575.319 304.307 576.012 305.56C576.732 306.813 577.092 308.293 577.092 310V313.88H563.412V316C563.412 317.733 563.852 319.067 564.732 320C565.612 320.907 566.866 321.36 568.492 321.36C569.879 321.36 570.999 321.12 571.852 320.64C572.706 320.133 573.226 319.387 573.412 318.4H577.012C576.772 320.24 575.866 321.707 574.292 322.8C572.746 323.867 570.812 324.4 568.492 324.4ZM573.572 311.48V310C573.572 308.267 573.132 306.933 572.252 306C571.399 305.067 570.146 304.6 568.492 304.6C566.866 304.6 565.612 305.067 564.732 306C563.852 306.933 563.412 308.267 563.412 310V311.16H573.852L573.572 311.48ZM595.477 324C594.197 324 593.077 323.747 592.117 323.24C591.157 322.733 590.41 322.013 589.877 321.08C589.343 320.147 589.077 319.053 589.077 317.8V298.08H581.677V294.8H592.677V317.8C592.677 318.707 592.93 319.427 593.437 319.96C593.943 320.467 594.623 320.72 595.477 320.72H602.477V324H595.477ZM616.461 324.32C614.701 324.32 613.181 323.987 611.901 323.32C610.621 322.653 609.621 321.693 608.901 320.44C608.208 319.16 607.861 317.653 607.861 315.92V310.08C607.861 308.32 608.208 306.813 608.901 305.56C609.621 304.307 610.621 303.347 611.901 302.68C613.181 302.013 614.701 301.68 616.461 301.68C618.221 301.68 619.741 302.013 621.021 302.68C622.301 303.347 623.288 304.307 623.981 305.56C624.701 306.813 625.061 308.307 625.061 310.04V315.92C625.061 317.653 624.701 319.16 623.981 320.44C623.288 321.693 622.301 322.653 621.021 323.32C619.741 323.987 618.221 324.32 616.461 324.32ZM616.461 321.12C618.034 321.12 619.261 320.68 620.141 319.8C621.021 318.92 621.461 317.627 621.461 315.92V310.08C621.461 308.373 621.021 307.08 620.141 306.2C619.261 305.32 618.034 304.88 616.461 304.88C614.914 304.88 613.688 305.32 612.781 306.2C611.901 307.08 611.461 308.373 611.461 310.08V315.92C611.461 317.627 611.901 318.92 612.781 319.8C613.688 320.68 614.914 321.12 616.461 321.12ZM632.125 331.2V302H635.725V306.2H636.445L635.725 307.04C635.725 305.36 636.272 304.04 637.365 303.08C638.485 302.093 639.952 301.6 641.765 301.6C643.979 301.6 645.739 302.333 647.045 303.8C648.379 305.24 649.045 307.227 649.045 309.76V316.2C649.045 317.88 648.739 319.333 648.125 320.56C647.539 321.787 646.699 322.733 645.605 323.4C644.539 324.067 643.259 324.4 641.765 324.4C639.979 324.4 638.525 323.907 637.405 322.92C636.285 321.933 635.725 320.613 635.725 318.96L636.445 319.8H635.645L635.725 324.8V331.2H632.125ZM640.565 321.28C642.085 321.28 643.272 320.827 644.125 319.92C645.005 319.013 645.445 317.707 645.445 316V310C645.445 308.293 645.005 306.987 644.125 306.08C643.272 305.173 642.085 304.72 640.565 304.72C639.099 304.72 637.925 305.187 637.045 306.12C636.165 307.053 635.725 308.347 635.725 310V316C635.725 317.653 636.165 318.947 637.045 319.88C637.925 320.813 639.099 321.28 640.565 321.28ZM664.43 324.4C662.696 324.4 661.176 324.053 659.87 323.36C658.59 322.667 657.59 321.693 656.87 320.44C656.176 319.16 655.83 317.68 655.83 316V310C655.83 308.293 656.176 306.813 656.87 305.56C657.59 304.307 658.59 303.333 659.87 302.64C661.176 301.947 662.696 301.6 664.43 301.6C666.163 301.6 667.67 301.947 668.95 302.64C670.256 303.333 671.256 304.307 671.95 305.56C672.67 306.813 673.03 308.293 673.03 310V313.88H659.35V316C659.35 317.733 659.79 319.067 660.67 320C661.55 320.907 662.803 321.36 664.43 321.36C665.816 321.36 666.936 321.12 667.79 320.64C668.643 320.133 669.163 319.387 669.35 318.4H672.95C672.71 320.24 671.803 321.707 670.23 322.8C668.683 323.867 666.75 324.4 664.43 324.4ZM669.51 311.48V310C669.51 308.267 669.07 306.933 668.19 306C667.336 305.067 666.083 304.6 664.43 304.6C662.803 304.6 661.55 305.067 660.67 306C659.79 306.933 659.35 308.267 659.35 310V311.16H669.79L669.51 311.48ZM680.854 324V302H684.374V306.2H685.214L684.054 308.8C684.054 306.427 684.561 304.64 685.574 303.44C686.614 302.213 688.147 301.6 690.174 301.6C692.494 301.6 694.334 302.333 695.694 303.8C697.081 305.24 697.774 307.2 697.774 309.68V311H694.174V310C694.174 308.267 693.747 306.947 692.894 306.04C692.067 305.107 690.881 304.64 689.334 304.64C687.814 304.64 686.614 305.107 685.734 306.04C684.881 306.973 684.454 308.293 684.454 310V324H680.854Z" fill="white"/>
<path d="M270.724 404V386.48H276.148C277.188 386.48 278.1 386.696 278.884 387.128C279.668 387.544 280.276 388.128 280.708 388.88C281.14 389.632 281.356 390.512 281.356 391.52C281.356 392.704 281.044 393.72 280.42 394.568C279.812 395.416 278.98 396 277.924 396.32L281.596 404H279.052L275.692 396.56H272.884V404H270.724ZM272.884 394.616H276.148C277.044 394.616 277.764 394.336 278.308 393.776C278.852 393.2 279.124 392.448 279.124 391.52C279.124 390.576 278.852 389.824 278.308 389.264C277.764 388.704 277.044 388.424 276.148 388.424H272.884V394.616ZM290.106 404.24C289.066 404.24 288.154 404.032 287.37 403.616C286.602 403.2 286.002 402.616 285.57 401.864C285.154 401.096 284.946 400.208 284.946 399.2V395.6C284.946 394.576 285.154 393.688 285.57 392.936C286.002 392.184 286.602 391.6 287.37 391.184C288.154 390.768 289.066 390.56 290.106 390.56C291.146 390.56 292.05 390.768 292.818 391.184C293.602 391.6 294.202 392.184 294.618 392.936C295.05 393.688 295.266 394.576 295.266 395.6V397.928H287.058V399.2C287.058 400.24 287.322 401.04 287.85 401.6C288.378 402.144 289.13 402.416 290.106 402.416C290.938 402.416 291.61 402.272 292.122 401.984C292.634 401.68 292.946 401.232 293.058 400.64H295.218C295.074 401.744 294.53 402.624 293.586 403.28C292.658 403.92 291.498 404.24 290.106 404.24ZM293.154 396.488V395.6C293.154 394.56 292.89 393.76 292.362 393.2C291.85 392.64 291.098 392.36 290.106 392.36C289.13 392.36 288.378 392.64 287.85 393.2C287.322 393.76 287.058 394.56 287.058 395.6V396.296H293.322L293.154 396.488ZM303.345 404.24C301.953 404.24 300.857 403.888 300.057 403.184C299.257 402.464 298.857 401.496 298.857 400.28C298.857 399.048 299.257 398.08 300.057 397.376C300.857 396.672 301.937 396.32 303.297 396.32H307.377V395C307.377 394.184 307.129 393.56 306.633 393.128C306.153 392.68 305.465 392.456 304.569 392.456C303.785 392.456 303.129 392.624 302.601 392.96C302.073 393.28 301.769 393.72 301.689 394.28H299.529C299.673 393.144 300.209 392.24 301.137 391.568C302.065 390.896 303.225 390.56 304.617 390.56C306.137 390.56 307.337 390.952 308.217 391.736C309.097 392.52 309.537 393.584 309.537 394.928V404H307.425V401.48H307.065L307.425 401.12C307.425 402.08 307.049 402.84 306.297 403.4C305.561 403.96 304.577 404.24 303.345 404.24ZM303.873 402.536C304.897 402.536 305.737 402.28 306.393 401.768C307.049 401.256 307.377 400.6 307.377 399.8V397.928H303.345C302.625 397.928 302.057 398.128 301.641 398.528C301.225 398.928 301.017 399.472 301.017 400.16C301.017 400.896 301.265 401.48 301.761 401.912C302.273 402.328 302.977 402.536 303.873 402.536ZM318.984 404.24C317.928 404.24 317 404.04 316.2 403.64C315.416 403.24 314.808 402.664 314.376 401.912C313.944 401.144 313.728 400.24 313.728 399.2V395.6C313.728 394.544 313.944 393.64 314.376 392.888C314.808 392.136 315.416 391.56 316.2 391.16C317 390.76 317.928 390.56 318.984 390.56C320.504 390.56 321.728 390.968 322.656 391.784C323.584 392.6 324.072 393.712 324.12 395.12H321.96C321.912 394.272 321.624 393.624 321.096 393.176C320.584 392.712 319.88 392.48 318.984 392.48C318.04 392.48 317.288 392.752 316.728 393.296C316.168 393.824 315.888 394.584 315.888 395.576V399.2C315.888 400.192 316.168 400.96 316.728 401.504C317.288 402.048 318.04 402.32 318.984 402.32C319.88 402.32 320.584 402.088 321.096 401.624C321.624 401.16 321.912 400.512 321.96 399.68H324.12C324.072 401.088 323.584 402.2 322.656 403.016C321.728 403.832 320.504 404.24 318.984 404.24ZM334.718 404C333.582 404 332.694 403.696 332.054 403.088C331.43 402.48 331.118 401.624 331.118 400.52V392.768H327.398V390.8H331.118V387.08H333.278V390.8H338.558V392.768H333.278V400.52C333.278 401.528 333.758 402.032 334.718 402.032H338.318V404H334.718ZM362.059 398.12C361.227 398.12 360.539 397.848 359.995 397.304C359.451 396.76 359.179 396.072 359.179 395.24C359.179 394.392 359.451 393.704 359.995 393.176C360.539 392.632 361.227 392.36 362.059 392.36C362.907 392.36 363.595 392.632 364.123 393.176C364.667 393.704 364.939 394.392 364.939 395.24C364.939 396.072 364.667 396.76 364.123 397.304C363.595 397.848 362.907 398.12 362.059 398.12ZM385.801 404V386.48H388.681L394.033 401.48C394.001 401.08 393.961 400.592 393.913 400.016C393.881 399.424 393.849 398.808 393.817 398.168C393.801 397.512 393.793 396.896 393.793 396.32V386.48H395.881V404H393.001L387.673 389C387.705 389.384 387.737 389.872 387.769 390.464C387.801 391.04 387.825 391.656 387.841 392.312C387.873 392.952 387.889 393.568 387.889 394.16V404H385.801ZM405.231 404.24C404.191 404.24 403.279 404.032 402.495 403.616C401.727 403.2 401.127 402.616 400.695 401.864C400.279 401.096 400.071 400.208 400.071 399.2V395.6C400.071 394.576 400.279 393.688 400.695 392.936C401.127 392.184 401.727 391.6 402.495 391.184C403.279 390.768 404.191 390.56 405.231 390.56C406.271 390.56 407.175 390.768 407.943 391.184C408.727 391.6 409.327 392.184 409.743 392.936C410.175 393.688 410.391 394.576 410.391 395.6V397.928H402.183V399.2C402.183 400.24 402.447 401.04 402.975 401.6C403.503 402.144 404.255 402.416 405.231 402.416C406.063 402.416 406.735 402.272 407.247 401.984C407.759 401.68 408.071 401.232 408.183 400.64H410.343C410.199 401.744 409.655 402.624 408.711 403.28C407.783 403.92 406.623 404.24 405.231 404.24ZM408.279 396.488V395.6C408.279 394.56 408.015 393.76 407.487 393.2C406.975 392.64 406.223 392.36 405.231 392.36C404.255 392.36 403.503 392.64 402.975 393.2C402.447 393.76 402.183 394.56 402.183 395.6V396.296H408.447L408.279 396.488ZM413.622 404L418.302 397.208L413.91 390.8H416.454L419.07 394.88C419.182 395.056 419.286 395.248 419.382 395.456C419.494 395.664 419.582 395.832 419.646 395.96C419.694 395.832 419.766 395.664 419.862 395.456C419.974 395.248 420.086 395.056 420.198 394.88L422.838 390.8H425.358L420.966 397.232L425.622 404H423.078L420.246 399.68C420.134 399.504 420.022 399.304 419.91 399.08C419.814 398.84 419.726 398.648 419.646 398.504C419.582 398.648 419.486 398.84 419.358 399.08C419.246 399.304 419.126 399.504 418.998 399.68L416.142 404H413.622ZM435.453 404C434.317 404 433.429 403.696 432.789 403.088C432.165 402.48 431.853 401.624 431.853 400.52V392.768H428.133V390.8H431.853V387.08H434.013V390.8H439.293V392.768H434.013V400.52C434.013 401.528 434.493 402.032 435.453 402.032H439.053V404H435.453ZM448.403 404.24C447.795 404.24 447.307 404.064 446.939 403.712C446.587 403.36 446.411 402.888 446.411 402.296C446.411 401.672 446.587 401.176 446.939 400.808C447.307 400.44 447.795 400.256 448.403 400.256C449.011 400.256 449.491 400.44 449.843 400.808C450.211 401.176 450.395 401.672 450.395 402.296C450.395 402.888 450.211 403.36 449.843 403.712C449.491 404.064 449.011 404.24 448.403 404.24ZM457.634 408.32V406.328H460.73C461.722 406.328 462.49 406.056 463.034 405.512C463.594 404.984 463.874 404.232 463.874 403.256V392.768H458.354V390.8H466.034V403.256C466.034 404.808 465.554 406.04 464.594 406.952C463.634 407.864 462.346 408.32 460.73 408.32H457.634ZM464.834 388.424C464.306 388.424 463.89 388.288 463.586 388.016C463.282 387.744 463.13 387.376 463.13 386.912C463.13 386.432 463.282 386.056 463.586 385.784C463.89 385.496 464.306 385.352 464.834 385.352C465.362 385.352 465.778 385.496 466.082 385.784C466.386 386.056 466.538 386.432 466.538 386.912C466.538 387.376 466.386 387.744 466.082 388.016C465.778 388.288 465.362 388.424 464.834 388.424ZM476.776 404.192C475.88 404.192 475.096 404.056 474.424 403.784C473.768 403.496 473.24 403.096 472.84 402.584C472.456 402.072 472.224 401.464 472.144 400.76H474.304C474.4 401.224 474.656 401.592 475.072 401.864C475.504 402.136 476.072 402.272 476.776 402.272H477.784C478.632 402.272 479.264 402.104 479.68 401.768C480.096 401.416 480.304 400.952 480.304 400.376C480.304 399.816 480.112 399.376 479.728 399.056C479.36 398.72 478.808 398.496 478.072 398.384L476.296 398.096C475 397.872 474.032 397.472 473.392 396.896C472.768 396.304 472.456 395.448 472.456 394.328C472.456 393.144 472.832 392.232 473.584 391.592C474.336 390.936 475.464 390.608 476.968 390.608H477.88C479.144 390.608 480.16 390.904 480.928 391.496C481.696 392.088 482.16 392.888 482.32 393.896H480.16C480.064 393.48 479.824 393.152 479.44 392.912C479.056 392.656 478.536 392.528 477.88 392.528H476.968C476.152 392.528 475.552 392.68 475.168 392.984C474.8 393.288 474.616 393.744 474.616 394.352C474.616 394.896 474.776 395.296 475.096 395.552C475.416 395.808 475.92 395.992 476.608 396.104L478.384 396.392C479.808 396.616 480.84 397.032 481.48 397.64C482.136 398.248 482.464 399.128 482.464 400.28C482.464 401.496 482.072 402.456 481.288 403.16C480.52 403.848 479.352 404.192 477.784 404.192H476.776ZM505.966 398.12C505.134 398.12 504.446 397.848 503.902 397.304C503.358 396.76 503.086 396.072 503.086 395.24C503.086 394.392 503.358 393.704 503.902 393.176C504.446 392.632 505.134 392.36 505.966 392.36C506.814 392.36 507.502 392.632 508.03 393.176C508.574 393.704 508.846 394.392 508.846 395.24C508.846 396.072 508.574 396.76 508.03 397.304C507.502 397.848 506.814 398.12 505.966 398.12ZM533.667 404V388.424H528.867V386.456H540.627V388.424H535.827V404H533.667ZM546.21 408.32L548.154 403.184L543.258 390.8H545.658L548.73 398.96C548.842 399.232 548.946 399.56 549.042 399.944C549.138 400.312 549.218 400.624 549.282 400.88C549.346 400.624 549.426 400.312 549.522 399.944C549.618 399.56 549.714 399.232 549.81 398.96L552.69 390.8H555.018L548.514 408.32H546.21ZM558.536 408.32V390.8H560.696V393.32H561.128L560.696 393.824C560.696 392.816 561.024 392.024 561.68 391.448C562.352 390.856 563.232 390.56 564.32 390.56C565.648 390.56 566.704 391 567.488 391.88C568.288 392.744 568.688 393.936 568.688 395.456V399.32C568.688 400.328 568.504 401.2 568.136 401.936C567.784 402.672 567.28 403.24 566.624 403.64C565.984 404.04 565.216 404.24 564.32 404.24C563.248 404.24 562.376 403.944 561.704 403.352C561.032 402.76 560.696 401.968 560.696 400.976L561.128 401.48H560.648L560.696 404.48V408.32H558.536ZM563.6 402.368C564.512 402.368 565.224 402.096 565.736 401.552C566.264 401.008 566.528 400.224 566.528 399.2V395.6C566.528 394.576 566.264 393.792 565.736 393.248C565.224 392.704 564.512 392.432 563.6 392.432C562.72 392.432 562.016 392.712 561.488 393.272C560.96 393.832 560.696 394.608 560.696 395.6V399.2C560.696 400.192 560.96 400.968 561.488 401.528C562.016 402.088 562.72 402.368 563.6 402.368ZM577.919 404.24C576.879 404.24 575.967 404.032 575.183 403.616C574.415 403.2 573.815 402.616 573.383 401.864C572.967 401.096 572.759 400.208 572.759 399.2V395.6C572.759 394.576 572.967 393.688 573.383 392.936C573.815 392.184 574.415 391.6 575.183 391.184C575.967 390.768 576.879 390.56 577.919 390.56C578.959 390.56 579.863 390.768 580.631 391.184C581.415 391.6 582.015 392.184 582.431 392.936C582.863 393.688 583.079 394.576 583.079 395.6V397.928H574.871V399.2C574.871 400.24 575.135 401.04 575.663 401.6C576.191 402.144 576.943 402.416 577.919 402.416C578.751 402.416 579.423 402.272 579.935 401.984C580.447 401.68 580.759 401.232 580.871 400.64H583.031C582.887 401.744 582.343 402.624 581.399 403.28C580.471 403.92 579.311 404.24 577.919 404.24ZM580.967 396.488V395.6C580.967 394.56 580.703 393.76 580.175 393.2C579.663 392.64 578.911 392.36 577.919 392.36C576.943 392.36 576.191 392.64 575.663 393.2C575.135 393.76 574.871 394.56 574.871 395.6V396.296H581.135L580.967 396.488ZM592.405 404.24C591.253 404.24 590.261 404.048 589.429 403.664C588.613 403.28 587.981 402.728 587.533 402.008C587.085 401.288 586.853 400.432 586.837 399.44H588.997C588.997 400.32 589.293 401.016 589.885 401.528C590.493 402.04 591.333 402.296 592.405 402.296C593.413 402.296 594.197 402.048 594.757 401.552C595.333 401.056 595.621 400.368 595.621 399.488C595.621 398.784 595.429 398.168 595.045 397.64C594.677 397.112 594.141 396.744 593.437 396.536L591.061 395.792C589.861 395.424 588.933 394.808 588.277 393.944C587.637 393.08 587.317 392.064 587.317 390.896C587.317 389.952 587.525 389.136 587.941 388.448C588.373 387.744 588.973 387.2 589.741 386.816C590.509 386.416 591.413 386.216 592.453 386.216C593.989 386.216 595.221 386.648 596.149 387.512C597.077 388.36 597.549 389.496 597.565 390.92H595.405C595.405 390.056 595.141 389.384 594.613 388.904C594.101 388.408 593.373 388.16 592.429 388.16C591.501 388.16 590.773 388.384 590.245 388.832C589.733 389.28 589.477 389.904 589.477 390.704C589.477 391.424 589.669 392.048 590.053 392.576C590.437 393.104 590.989 393.48 591.709 393.704L594.109 394.472C595.277 394.84 596.181 395.464 596.821 396.344C597.461 397.224 597.781 398.256 597.781 399.44C597.781 400.4 597.557 401.24 597.109 401.96C596.661 402.68 596.029 403.24 595.213 403.64C594.413 404.04 593.477 404.24 592.405 404.24ZM606.796 404.24C605.74 404.24 604.812 404.04 604.012 403.64C603.228 403.24 602.62 402.664 602.188 401.912C601.756 401.144 601.54 400.24 601.54 399.2V395.6C601.54 394.544 601.756 393.64 602.188 392.888C602.62 392.136 603.228 391.56 604.012 391.16C604.812 390.76 605.74 390.56 606.796 390.56C608.316 390.56 609.54 390.968 610.468 391.784C611.396 392.6 611.884 393.712 611.932 395.12H609.772C609.724 394.272 609.436 393.624 608.908 393.176C608.396 392.712 607.692 392.48 606.796 392.48C605.852 392.48 605.1 392.752 604.54 393.296C603.98 393.824 603.7 394.584 603.7 395.576V399.2C603.7 400.192 603.98 400.96 604.54 401.504C605.1 402.048 605.852 402.32 606.796 402.32C607.692 402.32 608.396 402.088 608.908 401.624C609.436 401.16 609.724 400.512 609.772 399.68H611.932C611.884 401.088 611.396 402.2 610.468 403.016C609.54 403.832 608.316 404.24 606.796 404.24ZM616.555 404V390.8H618.667V393.32H619.171L618.475 394.88C618.475 393.456 618.779 392.384 619.387 391.664C620.011 390.928 620.931 390.56 622.147 390.56C623.539 390.56 624.643 391 625.459 391.88C626.291 392.744 626.707 393.92 626.707 395.408V396.2H624.547V395.6C624.547 394.56 624.291 393.768 623.779 393.224C623.283 392.664 622.571 392.384 621.643 392.384C620.731 392.384 620.011 392.664 619.483 393.224C618.971 393.784 618.715 394.576 618.715 395.6V404H616.555ZM630.321 404V402.032H635.001V392.768H630.921V390.8H637.161V402.032H641.601V404H630.321ZM635.841 388.424C635.313 388.424 634.897 388.288 634.593 388.016C634.289 387.744 634.137 387.376 634.137 386.912C634.137 386.432 634.289 386.056 634.593 385.784C634.897 385.496 635.313 385.352 635.841 385.352C636.369 385.352 636.785 385.496 637.089 385.784C637.393 386.056 637.545 386.432 637.545 386.912C637.545 387.376 637.393 387.744 637.089 388.016C636.785 388.288 636.369 388.424 635.841 388.424ZM644.88 408.32V390.8H647.04V393.32H647.472L647.04 393.824C647.04 392.816 647.368 392.024 648.024 391.448C648.696 390.856 649.576 390.56 650.664 390.56C651.992 390.56 653.048 391 653.832 391.88C654.632 392.744 655.032 393.936 655.032 395.456V399.32C655.032 400.328 654.848 401.2 654.48 401.936C654.128 402.672 653.624 403.24 652.968 403.64C652.328 404.04 651.56 404.24 650.664 404.24C649.592 404.24 648.72 403.944 648.048 403.352C647.376 402.76 647.04 401.968 647.04 400.976L647.472 401.48H646.992L647.04 404.48V408.32H644.88ZM649.944 402.368C650.856 402.368 651.568 402.096 652.08 401.552C652.608 401.008 652.872 400.224 652.872 399.2V395.6C652.872 394.576 652.608 393.792 652.08 393.248C651.568 392.704 650.856 392.432 649.944 392.432C649.064 392.432 648.36 392.712 647.832 393.272C647.304 393.832 647.04 394.608 647.04 395.6V399.2C647.04 400.192 647.304 400.968 647.832 401.528C648.36 402.088 649.064 402.368 649.944 402.368ZM665.703 404C664.567 404 663.679 403.696 663.039 403.088C662.415 402.48 662.103 401.624 662.103 400.52V392.768H658.383V390.8H662.103V387.08H664.263V390.8H669.543V392.768H664.263V400.52C664.263 401.528 664.743 402.032 665.703 402.032H669.303V404H665.703ZM693.044 398.12C692.212 398.12 691.524 397.848 690.98 397.304C690.436 396.76 690.164 396.072 690.164 395.24C690.164 394.392 690.436 393.704 690.98 393.176C691.524 392.632 692.212 392.36 693.044 392.36C693.892 392.36 694.58 392.632 695.108 393.176C695.652 393.704 695.924 394.392 695.924 395.24C695.924 396.072 695.652 396.76 695.108 397.304C694.58 397.848 693.892 398.12 693.044 398.12ZM716.857 404V386.48H721.825C723.425 386.48 724.673 386.88 725.569 387.68C726.481 388.48 726.937 389.592 726.937 391.016C726.937 391.816 726.769 392.512 726.433 393.104C726.097 393.696 725.617 394.152 724.993 394.472C724.385 394.792 723.649 394.944 722.785 394.928V394.568C723.713 394.552 724.513 394.728 725.185 395.096C725.873 395.464 726.401 395.992 726.769 396.68C727.153 397.368 727.345 398.184 727.345 399.128C727.345 400.12 727.137 400.984 726.721 401.72C726.305 402.456 725.713 403.024 724.945 403.424C724.177 403.808 723.257 404 722.185 404H716.857ZM718.969 402.056H721.945C722.953 402.056 723.745 401.792 724.321 401.264C724.913 400.72 725.209 399.984 725.209 399.056C725.209 398.096 724.913 397.32 724.321 396.728C723.745 396.12 722.953 395.816 721.945 395.816H718.969V402.056ZM718.969 393.944H721.801C722.729 393.944 723.457 393.696 723.985 393.2C724.529 392.704 724.801 392.032 724.801 391.184C724.801 390.336 724.537 389.664 724.009 389.168C723.481 388.672 722.753 388.424 721.825 388.424H718.969V393.944ZM736.216 404.192C735.16 404.192 734.248 403.992 733.48 403.592C732.712 403.192 732.112 402.616 731.68 401.864C731.264 401.096 731.056 400.192 731.056 399.152V395.648C731.056 394.592 731.264 393.688 731.68 392.936C732.112 392.184 732.712 391.608 733.48 391.208C734.248 390.808 735.16 390.608 736.216 390.608C737.272 390.608 738.184 390.808 738.952 391.208C739.72 391.608 740.312 392.184 740.728 392.936C741.16 393.688 741.376 394.584 741.376 395.624V399.152C741.376 400.192 741.16 401.096 740.728 401.864C740.312 402.616 739.72 403.192 738.952 403.592C738.184 403.992 737.272 404.192 736.216 404.192ZM736.216 402.272C737.16 402.272 737.896 402.008 738.424 401.48C738.952 400.952 739.216 400.176 739.216 399.152V395.648C739.216 394.624 738.952 393.848 738.424 393.32C737.896 392.792 737.16 392.528 736.216 392.528C735.288 392.528 734.552 392.792 734.008 393.32C733.48 393.848 733.216 394.624 733.216 395.648V399.152C733.216 400.176 733.48 400.952 734.008 401.48C734.552 402.008 735.288 402.272 736.216 402.272ZM752.046 404C750.91 404 750.022 403.696 749.382 403.088C748.758 402.48 748.446 401.624 748.446 400.52V392.768H744.726V390.8H748.446V387.08H750.606V390.8H755.886V392.768H750.606V400.52C750.606 401.528 751.086 402.032 752.046 402.032H755.646V404H752.046ZM774.396 404V386.48H778.932C780.068 386.48 781.044 386.696 781.86 387.128C782.692 387.56 783.332 388.168 783.78 388.952C784.244 389.736 784.476 390.664 784.476 391.736V398.72C784.476 399.792 784.244 400.728 783.78 401.528C783.332 402.312 782.692 402.92 781.86 403.352C781.044 403.784 780.068 404 778.932 404H774.396ZM776.556 402.08H778.932C779.988 402.08 780.812 401.784 781.404 401.192C782.012 400.6 782.316 399.776 782.316 398.72V391.736C782.316 390.696 782.012 389.88 781.404 389.288C780.812 388.696 779.988 388.4 778.932 388.4H776.556V402.08ZM793.778 404.24C792.738 404.24 791.826 404.032 791.042 403.616C790.274 403.2 789.674 402.616 789.242 401.864C788.826 401.096 788.618 400.208 788.618 399.2V395.6C788.618 394.576 788.826 393.688 789.242 392.936C789.674 392.184 790.274 391.6 791.042 391.184C791.826 390.768 792.738 390.56 793.778 390.56C794.818 390.56 795.722 390.768 796.49 391.184C797.274 391.6 797.874 392.184 798.29 392.936C798.722 393.688 798.938 394.576 798.938 395.6V397.928H790.73V399.2C790.73 400.24 790.994 401.04 791.522 401.6C792.05 402.144 792.802 402.416 793.778 402.416C794.61 402.416 795.282 402.272 795.794 401.984C796.306 401.68 796.618 401.232 796.73 400.64H798.89C798.746 401.744 798.202 402.624 797.258 403.28C796.33 403.92 795.17 404.24 793.778 404.24ZM796.826 396.488V395.6C796.826 394.56 796.562 393.76 796.034 393.2C795.522 392.64 794.77 392.36 793.778 392.36C792.802 392.36 792.05 392.64 791.522 393.2C790.994 393.76 790.73 394.56 790.73 395.6V396.296H796.994L796.826 396.488ZM806.705 404L802.289 390.8H804.497L807.425 399.68C807.601 400.208 807.761 400.72 807.905 401.216C808.049 401.696 808.153 402.072 808.217 402.344C808.297 402.072 808.409 401.696 808.553 401.216C808.697 400.72 808.849 400.208 809.009 399.68L811.865 390.8H814.049L809.633 404H806.705ZM822.559 404.24C821.519 404.24 820.607 404.032 819.823 403.616C819.055 403.2 818.455 402.616 818.023 401.864C817.607 401.096 817.399 400.208 817.399 399.2V395.6C817.399 394.576 817.607 393.688 818.023 392.936C818.455 392.184 819.055 391.6 819.823 391.184C820.607 390.768 821.519 390.56 822.559 390.56C823.599 390.56 824.503 390.768 825.271 391.184C826.055 391.6 826.655 392.184 827.071 392.936C827.503 393.688 827.719 394.576 827.719 395.6V397.928H819.511V399.2C819.511 400.24 819.775 401.04 820.303 401.6C820.831 402.144 821.583 402.416 822.559 402.416C823.391 402.416 824.063 402.272 824.575 401.984C825.087 401.68 825.399 401.232 825.511 400.64H827.671C827.527 401.744 826.983 402.624 826.039 403.28C825.111 403.92 823.951 404.24 822.559 404.24ZM825.607 396.488V395.6C825.607 394.56 825.343 393.76 824.815 393.2C824.303 392.64 823.551 392.36 822.559 392.36C821.583 392.36 820.831 392.64 820.303 393.2C819.775 393.76 819.511 394.56 819.511 395.6V396.296H825.775L825.607 396.488ZM838.75 404C837.982 404 837.31 403.848 836.734 403.544C836.158 403.24 835.71 402.808 835.39 402.248C835.07 401.688 834.91 401.032 834.91 400.28V388.448H830.47V386.48H837.07V400.28C837.07 400.824 837.222 401.256 837.526 401.576C837.83 401.88 838.238 402.032 838.75 402.032H842.95V404H838.75ZM851.341 404.192C850.285 404.192 849.373 403.992 848.605 403.592C847.837 403.192 847.237 402.616 846.805 401.864C846.389 401.096 846.181 400.192 846.181 399.152V395.648C846.181 394.592 846.389 393.688 846.805 392.936C847.237 392.184 847.837 391.608 848.605 391.208C849.373 390.808 850.285 390.608 851.341 390.608C852.397 390.608 853.309 390.808 854.077 391.208C854.845 391.608 855.437 392.184 855.853 392.936C856.285 393.688 856.501 394.584 856.501 395.624V399.152C856.501 400.192 856.285 401.096 855.853 401.864C855.437 402.616 854.845 403.192 854.077 403.592C853.309 403.992 852.397 404.192 851.341 404.192ZM851.341 402.272C852.285 402.272 853.021 402.008 853.549 401.48C854.077 400.952 854.341 400.176 854.341 399.152V395.648C854.341 394.624 854.077 393.848 853.549 393.32C853.021 392.792 852.285 392.528 851.341 392.528C850.413 392.528 849.677 392.792 849.133 393.32C848.605 393.848 848.341 394.624 848.341 395.648V399.152C848.341 400.176 848.605 400.952 849.133 401.48C849.677 402.008 850.413 402.272 851.341 402.272ZM860.739 408.32V390.8H862.899V393.32H863.331L862.899 393.824C862.899 392.816 863.227 392.024 863.883 391.448C864.555 390.856 865.435 390.56 866.523 390.56C867.851 390.56 868.907 391 869.691 391.88C870.491 392.744 870.891 393.936 870.891 395.456V399.32C870.891 400.328 870.707 401.2 870.339 401.936C869.987 402.672 869.483 403.24 868.827 403.64C868.187 404.04 867.419 404.24 866.523 404.24C865.451 404.24 864.579 403.944 863.907 403.352C863.235 402.76 862.899 401.968 862.899 400.976L863.331 401.48H862.851L862.899 404.48V408.32H860.739ZM865.803 402.368C866.715 402.368 867.427 402.096 867.939 401.552C868.467 401.008 868.731 400.224 868.731 399.2V395.6C868.731 394.576 868.467 393.792 867.939 393.248C867.427 392.704 866.715 392.432 865.803 392.432C864.923 392.432 864.219 392.712 863.691 393.272C863.163 393.832 862.899 394.608 862.899 395.6V399.2C862.899 400.192 863.163 400.968 863.691 401.528C864.219 402.088 864.923 402.368 865.803 402.368ZM874.506 404V390.8H876.402V392.384H876.834L876.498 392.96C876.498 392.224 876.69 391.64 877.074 391.208C877.474 390.776 878.01 390.56 878.682 390.56C879.418 390.56 879.986 390.832 880.386 391.376C880.786 391.92 880.986 392.688 880.986 393.68L880.338 392.384H881.346L880.89 392.96C880.89 392.224 881.09 391.64 881.49 391.208C881.906 390.776 882.45 390.56 883.122 390.56C883.954 390.56 884.594 390.872 885.042 391.496C885.506 392.12 885.738 392.944 885.738 393.968V404H883.746V393.944C883.746 393.4 883.626 392.976 883.386 392.672C883.162 392.368 882.826 392.216 882.378 392.216C881.946 392.216 881.602 392.368 881.346 392.672C881.106 392.96 880.986 393.376 880.986 393.92V404H879.258V393.944C879.258 393.384 879.13 392.96 878.874 392.672C878.634 392.368 878.29 392.216 877.842 392.216C877.394 392.216 877.058 392.368 876.834 392.672C876.61 392.96 876.498 393.376 876.498 393.92V404H874.506ZM894.513 404.24C893.473 404.24 892.561 404.032 891.777 403.616C891.009 403.2 890.409 402.616 889.977 401.864C889.561 401.096 889.353 400.208 889.353 399.2V395.6C889.353 394.576 889.561 393.688 889.977 392.936C890.409 392.184 891.009 391.6 891.777 391.184C892.561 390.768 893.473 390.56 894.513 390.56C895.553 390.56 896.457 390.768 897.225 391.184C898.009 391.6 898.609 392.184 899.025 392.936C899.457 393.688 899.673 394.576 899.673 395.6V397.928H891.465V399.2C891.465 400.24 891.729 401.04 892.257 401.6C892.785 402.144 893.537 402.416 894.513 402.416C895.345 402.416 896.017 402.272 896.529 401.984C897.041 401.68 897.353 401.232 897.465 400.64H899.625C899.481 401.744 898.937 402.624 897.993 403.28C897.065 403.92 895.905 404.24 894.513 404.24ZM897.561 396.488V395.6C897.561 394.56 897.297 393.76 896.769 393.2C896.257 392.64 895.505 392.36 894.513 392.36C893.537 392.36 892.785 392.64 892.257 393.2C891.729 393.76 891.465 394.56 891.465 395.6V396.296H897.729L897.561 396.488ZM903.911 404V390.8H906.071V393.32H906.527L906.071 393.824C906.071 392.784 906.383 391.984 907.007 391.424C907.631 390.848 908.495 390.56 909.599 390.56C910.927 390.56 911.983 390.968 912.767 391.784C913.551 392.6 913.943 393.712 913.943 395.12V404H911.783V395.36C911.783 394.416 911.527 393.696 911.015 393.2C910.519 392.688 909.839 392.432 908.975 392.432C908.079 392.432 907.367 392.704 906.839 393.248C906.327 393.792 906.071 394.576 906.071 395.6V404H903.911ZM924.734 404C923.598 404 922.71 403.696 922.07 403.088C921.446 402.48 921.134 401.624 921.134 400.52V392.768H917.414V390.8H921.134V387.08H923.294V390.8H928.574V392.768H923.294V400.52C923.294 401.528 923.774 402.032 924.734 402.032H928.334V404H924.734Z" fill="white"/>
<path d="M268 441H931" stroke="#A3A3A3"/>
<path d="M32.3056 602V600.032H36.9856V590.768H32.9056V588.8H39.1456V600.032H43.5856V602H32.3056ZM37.8256 586.424C37.2976 586.424 36.8816 586.288 36.5776 586.016C36.2736 585.744 36.1216 585.376 36.1216 584.912C36.1216 584.432 36.2736 584.056 36.5776 583.784C36.8816 583.496 37.2976 583.352 37.8256 583.352C38.3536 583.352 38.7696 583.496 39.0736 583.784C39.3776 584.056 39.5296 584.432 39.5296 584.912C39.5296 585.376 39.3776 585.744 39.0736 586.016C38.7696 586.288 38.3536 586.424 37.8256 586.424ZM50.3923 602L45.9763 588.8H48.1842L51.1123 597.68C51.2883 598.208 51.4483 598.72 51.5923 599.216C51.7363 599.696 51.8403 600.072 51.9043 600.344C51.9843 600.072 52.0963 599.696 52.2403 599.216C52.3843 598.72 52.5363 598.208 52.6963 597.68L55.5523 588.8H57.7363L53.3203 602H50.3923ZM65.0949 602.24C63.7029 602.24 62.6069 601.888 61.8069 601.184C61.0069 600.464 60.6069 599.496 60.6069 598.28C60.6069 597.048 61.0069 596.08 61.8069 595.376C62.6069 594.672 63.6869 594.32 65.0469 594.32H69.1269V593C69.1269 592.184 68.8789 591.56 68.3829 591.128C67.9029 590.68 67.2149 590.456 66.3189 590.456C65.5349 590.456 64.8789 590.624 64.3509 590.96C63.8229 591.28 63.5189 591.72 63.4389 592.28H61.2789C61.4229 591.144 61.9589 590.24 62.8869 589.568C63.8149 588.896 64.9749 588.56 66.3669 588.56C67.8869 588.56 69.0869 588.952 69.9669 589.736C70.8469 590.52 71.2869 591.584 71.2869 592.928V602H69.1749V599.48H68.8149L69.1749 599.12C69.1749 600.08 68.7989 600.84 68.0469 601.4C67.3109 601.96 66.3269 602.24 65.0949 602.24ZM65.6229 600.536C66.6469 600.536 67.4869 600.28 68.1429 599.768C68.7989 599.256 69.1269 598.6 69.1269 597.8V595.928H65.0949C64.3749 595.928 63.8069 596.128 63.3909 596.528C62.9749 596.928 62.7669 597.472 62.7669 598.16C62.7669 598.896 63.0149 599.48 63.5109 599.912C64.0229 600.328 64.7269 600.536 65.6229 600.536ZM75.6455 602V588.8H77.8055V591.32H78.2615L77.8055 591.824C77.8055 590.784 78.1175 589.984 78.7415 589.424C79.3655 588.848 80.2295 588.56 81.3335 588.56C82.6615 588.56 83.7175 588.968 84.5015 589.784C85.2855 590.6 85.6775 591.712 85.6775 593.12V602H83.5175V593.36C83.5175 592.416 83.2615 591.696 82.7495 591.2C82.2535 590.688 81.5735 590.432 80.7095 590.432C79.8135 590.432 79.1015 590.704 78.5735 591.248C78.0615 591.792 77.8055 592.576 77.8055 593.6V602H75.6455ZM91.1881 595.04V593.12H98.8681V595.04H91.1881ZM109.011 602.192C108.115 602.192 107.331 602.056 106.659 601.784C106.003 601.496 105.475 601.096 105.075 600.584C104.691 600.072 104.459 599.464 104.379 598.76H106.539C106.635 599.224 106.891 599.592 107.307 599.864C107.739 600.136 108.307 600.272 109.011 600.272H110.019C110.867 600.272 111.499 600.104 111.915 599.768C112.331 599.416 112.539 598.952 112.539 598.376C112.539 597.816 112.347 597.376 111.963 597.056C111.595 596.72 111.043 596.496 110.307 596.384L108.531 596.096C107.235 595.872 106.267 595.472 105.627 594.896C105.003 594.304 104.691 593.448 104.691 592.328C104.691 591.144 105.067 590.232 105.819 589.592C106.571 588.936 107.699 588.608 109.203 588.608H110.115C111.379 588.608 112.395 588.904 113.163 589.496C113.931 590.088 114.395 590.888 114.555 591.896H112.395C112.299 591.48 112.059 591.152 111.675 590.912C111.291 590.656 110.771 590.528 110.115 590.528H109.203C108.387 590.528 107.787 590.68 107.403 590.984C107.035 591.288 106.851 591.744 106.851 592.352C106.851 592.896 107.011 593.296 107.331 593.552C107.651 593.808 108.155 593.992 108.843 594.104L110.619 594.392C112.043 594.616 113.075 595.032 113.715 595.64C114.371 596.248 114.699 597.128 114.699 598.28C114.699 599.496 114.307 600.456 113.523 601.16C112.755 601.848 111.587 602.192 110.019 602.192H109.011ZM118.193 602V588.8H120.089V590.384H120.521L120.185 590.96C120.185 590.224 120.377 589.64 120.761 589.208C121.161 588.776 121.697 588.56 122.369 588.56C123.105 588.56 123.673 588.832 124.073 589.376C124.473 589.92 124.673 590.688 124.673 591.68L124.025 590.384H125.033L124.577 590.96C124.577 590.224 124.777 589.64 125.177 589.208C125.593 588.776 126.137 588.56 126.809 588.56C127.641 588.56 128.281 588.872 128.729 589.496C129.193 590.12 129.425 590.944 129.425 591.968V602H127.433V591.944C127.433 591.4 127.313 590.976 127.073 590.672C126.849 590.368 126.513 590.216 126.065 590.216C125.633 590.216 125.289 590.368 125.033 590.672C124.793 590.96 124.673 591.376 124.673 591.92V602H122.945V591.944C122.945 591.384 122.817 590.96 122.561 590.672C122.321 590.368 121.977 590.216 121.529 590.216C121.081 590.216 120.745 590.368 120.521 590.672C120.297 590.96 120.185 591.376 120.185 591.92V602H118.193ZM138.2 602.192C137.144 602.192 136.232 601.992 135.464 601.592C134.696 601.192 134.096 600.616 133.664 599.864C133.248 599.096 133.04 598.192 133.04 597.152V593.648C133.04 592.592 133.248 591.688 133.664 590.936C134.096 590.184 134.696 589.608 135.464 589.208C136.232 588.808 137.144 588.608 138.2 588.608C139.256 588.608 140.168 588.808 140.936 589.208C141.704 589.608 142.296 590.184 142.712 590.936C143.144 591.688 143.36 592.584 143.36 593.624V597.152C143.36 598.192 143.144 599.096 142.712 599.864C142.296 600.616 141.704 601.192 140.936 601.592C140.168 601.992 139.256 602.192 138.2 602.192ZM138.2 600.272C139.144 600.272 139.88 600.008 140.408 599.48C140.936 598.952 141.2 598.176 141.2 597.152V593.648C141.2 592.624 140.936 591.848 140.408 591.32C139.88 590.792 139.144 590.528 138.2 590.528C137.272 590.528 136.536 590.792 135.992 591.32C135.464 591.848 135.2 592.624 135.2 593.648V597.152C135.2 598.176 135.464 598.952 135.992 599.48C136.536 600.008 137.272 600.272 138.2 600.272ZM154.391 602C153.623 602 152.951 601.848 152.375 601.544C151.799 601.24 151.351 600.808 151.031 600.248C150.711 599.688 150.551 599.032 150.551 598.28V586.448H146.111V584.48H152.711V598.28C152.711 598.824 152.863 599.256 153.167 599.576C153.471 599.88 153.879 600.032 154.391 600.032H158.591V602H154.391ZM161.821 602V600.032H166.501V590.768H162.421V588.8H168.661V600.032H173.101V602H161.821ZM167.341 586.424C166.813 586.424 166.397 586.288 166.093 586.016C165.789 585.744 165.637 585.376 165.637 584.912C165.637 584.432 165.789 584.056 166.093 583.784C166.397 583.496 166.813 583.352 167.341 583.352C167.869 583.352 168.285 583.496 168.589 583.784C168.893 584.056 169.045 584.432 169.045 584.912C169.045 585.376 168.893 585.744 168.589 586.016C168.285 586.288 167.869 586.424 167.341 586.424ZM176.38 602V588.8H178.54V591.32H178.996L178.54 591.824C178.54 590.784 178.852 589.984 179.476 589.424C180.1 588.848 180.964 588.56 182.068 588.56C183.396 588.56 184.452 588.968 185.236 589.784C186.02 590.6 186.412 591.712 186.412 593.12V602H184.252V593.36C184.252 592.416 183.996 591.696 183.484 591.2C182.988 590.688 182.308 590.432 181.444 590.432C180.548 590.432 179.836 590.704 179.308 591.248C178.796 591.792 178.54 592.576 178.54 593.6V602H176.38ZM195.763 602.24C195.155 602.24 194.667 602.064 194.299 601.712C193.947 601.36 193.771 600.888 193.771 600.296C193.771 599.672 193.947 599.176 194.299 598.808C194.667 598.44 195.155 598.256 195.763 598.256C196.371 598.256 196.851 598.44 197.203 598.808C197.571 599.176 197.755 599.672 197.755 600.296C197.755 600.888 197.571 601.36 197.203 601.712C196.851 602.064 196.371 602.24 195.763 602.24ZM205.617 602V588.8H207.729V591.32H208.233L207.537 592.88C207.537 591.456 207.841 590.384 208.449 589.664C209.073 588.928 209.993 588.56 211.209 588.56C212.601 588.56 213.705 589 214.521 589.88C215.353 590.744 215.769 591.92 215.769 593.408V594.2H213.609V593.6C213.609 592.56 213.353 591.768 212.841 591.224C212.345 590.664 211.633 590.384 210.705 590.384C209.793 590.384 209.073 590.664 208.545 591.224C208.033 591.784 207.777 592.576 207.777 593.6V602H205.617ZM224.52 602.24C223 602.24 221.784 601.792 220.872 600.896C219.96 599.984 219.504 598.752 219.504 597.2V588.8H221.664V597.2C221.664 598.192 221.92 598.968 222.432 599.528C222.944 600.072 223.64 600.344 224.52 600.344C225.416 600.344 226.12 600.072 226.632 599.528C227.16 598.968 227.424 598.192 227.424 597.2V588.8H229.584V597.2C229.584 598.752 229.12 599.984 228.192 600.896C227.264 601.792 226.04 602.24 224.52 602.24Z" fill="white" fill-opacity="0.7"/>
<path d="M1042.45 602V584.48H1048.09C1049.18 584.48 1050.12 584.696 1050.92 585.128C1051.72 585.544 1052.34 586.136 1052.77 586.904C1053.22 587.672 1053.44 588.584 1053.44 589.64C1053.44 590.68 1053.22 591.592 1052.77 592.376C1052.34 593.144 1051.72 593.744 1050.92 594.176C1050.12 594.592 1049.18 594.8 1048.09 594.8H1044.61V602H1042.45ZM1044.61 592.856H1048.09C1049.03 592.856 1049.79 592.568 1050.35 591.992C1050.92 591.4 1051.21 590.616 1051.21 589.64C1051.21 588.648 1050.92 587.864 1050.35 587.288C1049.79 586.712 1049.03 586.424 1048.09 586.424H1044.61V592.856ZM1061.83 602.192C1060.78 602.192 1059.86 601.992 1059.1 601.592C1058.33 601.192 1057.73 600.616 1057.3 599.864C1056.88 599.096 1056.67 598.192 1056.67 597.152V593.648C1056.67 592.592 1056.88 591.688 1057.3 590.936C1057.73 590.184 1058.33 589.608 1059.1 589.208C1059.86 588.808 1060.78 588.608 1061.83 588.608C1062.89 588.608 1063.8 588.808 1064.57 589.208C1065.34 589.608 1065.93 590.184 1066.34 590.936C1066.78 591.688 1066.99 592.584 1066.99 593.624V597.152C1066.99 598.192 1066.78 599.096 1066.34 599.864C1065.93 600.616 1065.34 601.192 1064.57 601.592C1063.8 601.992 1062.89 602.192 1061.83 602.192ZM1061.83 600.272C1062.78 600.272 1063.51 600.008 1064.04 599.48C1064.57 598.952 1064.83 598.176 1064.83 597.152V593.648C1064.83 592.624 1064.57 591.848 1064.04 591.32C1063.51 590.792 1062.78 590.528 1061.83 590.528C1060.9 590.528 1060.17 590.792 1059.62 591.32C1059.1 591.848 1058.83 592.624 1058.83 593.648V597.152C1058.83 598.176 1059.1 598.952 1059.62 599.48C1060.17 600.008 1060.9 600.272 1061.83 600.272ZM1071.69 602V588.8H1073.8V591.32H1074.3L1073.61 592.88C1073.61 591.456 1073.91 590.384 1074.52 589.664C1075.14 588.928 1076.06 588.56 1077.28 588.56C1078.67 588.56 1079.78 589 1080.59 589.88C1081.42 590.744 1081.84 591.92 1081.84 593.408V594.2H1079.68V593.6C1079.68 592.56 1079.42 591.768 1078.91 591.224C1078.42 590.664 1077.7 590.384 1076.78 590.384C1075.86 590.384 1075.14 590.664 1074.62 591.224C1074.1 591.784 1073.85 592.576 1073.85 593.6V602H1071.69ZM1092.05 602C1090.92 602 1090.03 601.696 1089.39 601.088C1088.77 600.48 1088.45 599.624 1088.45 598.52V590.768H1084.73V588.8H1088.45V585.08H1090.61V588.8H1095.89V590.768H1090.61V598.52C1090.61 599.528 1091.09 600.032 1092.05 600.032H1095.65V602H1092.05ZM1103.08 602V592.088H1099.24V590.12H1103.08V587.84C1103.08 586.8 1103.41 585.984 1104.07 585.392C1104.72 584.784 1105.63 584.48 1106.78 584.48H1110.64V586.448H1106.78C1106.28 586.448 1105.9 586.568 1105.63 586.808C1105.37 587.032 1105.24 587.376 1105.24 587.84V590.12H1110.64V592.088H1105.24V602H1103.08ZM1119.4 602.192C1118.34 602.192 1117.43 601.992 1116.66 601.592C1115.89 601.192 1115.29 600.616 1114.86 599.864C1114.44 599.096 1114.24 598.192 1114.24 597.152V593.648C1114.24 592.592 1114.44 591.688 1114.86 590.936C1115.29 590.184 1115.89 589.608 1116.66 589.208C1117.43 588.808 1118.34 588.608 1119.4 588.608C1120.45 588.608 1121.36 588.808 1122.13 589.208C1122.9 589.608 1123.49 590.184 1123.91 590.936C1124.34 591.688 1124.56 592.584 1124.56 593.624V597.152C1124.56 598.192 1124.34 599.096 1123.91 599.864C1123.49 600.616 1122.9 601.192 1122.13 601.592C1121.36 601.992 1120.45 602.192 1119.4 602.192ZM1119.4 600.272C1120.34 600.272 1121.08 600.008 1121.6 599.48C1122.13 598.952 1122.4 598.176 1122.4 597.152V593.648C1122.4 592.624 1122.13 591.848 1121.6 591.32C1121.08 590.792 1120.34 590.528 1119.4 590.528C1118.47 590.528 1117.73 590.792 1117.19 591.32C1116.66 591.848 1116.4 592.624 1116.4 593.648V597.152C1116.4 598.176 1116.66 598.952 1117.19 599.48C1117.73 600.008 1118.47 600.272 1119.4 600.272ZM1135.59 602C1134.82 602 1134.15 601.848 1133.57 601.544C1132.99 601.24 1132.55 600.808 1132.23 600.248C1131.91 599.688 1131.75 599.032 1131.75 598.28V586.448H1127.31V584.48H1133.91V598.28C1133.91 598.824 1134.06 599.256 1134.36 599.576C1134.67 599.88 1135.07 600.032 1135.59 600.032H1139.79V602H1135.59ZM1143.02 602V600.032H1147.7V590.768H1143.62V588.8H1149.86V600.032H1154.3V602H1143.02ZM1148.54 586.424C1148.01 586.424 1147.59 586.288 1147.29 586.016C1146.98 585.744 1146.83 585.376 1146.83 584.912C1146.83 584.432 1146.98 584.056 1147.29 583.784C1147.59 583.496 1148.01 583.352 1148.54 583.352C1149.06 583.352 1149.48 583.496 1149.78 583.784C1150.09 584.056 1150.24 584.432 1150.24 584.912C1150.24 585.376 1150.09 585.744 1149.78 586.016C1149.48 586.288 1149.06 586.424 1148.54 586.424ZM1162.57 602.192C1161.51 602.192 1160.6 601.992 1159.83 601.592C1159.06 601.192 1158.46 600.616 1158.03 599.864C1157.62 599.096 1157.41 598.192 1157.41 597.152V593.648C1157.41 592.592 1157.62 591.688 1158.03 590.936C1158.46 590.184 1159.06 589.608 1159.83 589.208C1160.6 588.808 1161.51 588.608 1162.57 588.608C1163.62 588.608 1164.54 588.808 1165.3 589.208C1166.07 589.608 1166.66 590.184 1167.08 590.936C1167.51 591.688 1167.73 592.584 1167.73 593.624V597.152C1167.73 598.192 1167.51 599.096 1167.08 599.864C1166.66 600.616 1166.07 601.192 1165.3 601.592C1164.54 601.992 1163.62 602.192 1162.57 602.192ZM1162.57 600.272C1163.51 600.272 1164.25 600.008 1164.78 599.48C1165.3 598.952 1165.57 598.176 1165.57 597.152V593.648C1165.57 592.624 1165.3 591.848 1164.78 591.32C1164.25 590.792 1163.51 590.528 1162.57 590.528C1161.64 590.528 1160.9 590.792 1160.36 591.32C1159.83 591.848 1159.57 592.624 1159.57 593.648V597.152C1159.57 598.176 1159.83 598.952 1160.36 599.48C1160.9 600.008 1161.64 600.272 1162.57 600.272Z" fill="white" fill-opacity="0.7"/>
</svg>
